<?xml version="1.0" encoding="UTF-8" standalone="no"?>
<!DOCTYPE svg PUBLIC "-//W3C//DTD SVG 1.1//EN"
 "http://www.w3.org/Graphics/SVG/1.1/DTD/svg11.dtd">
<!-- Generated by graphviz version 2.38.0 (20140413.2041)
 -->
<!-- Title: %3 Pages: 1 -->
<svg width="1538pt" height="188pt"
 viewBox="0.00 0.00 1537.63 188.00" xmlns="http://www.w3.org/2000/svg" xmlns:xlink="http://www.w3.org/1999/xlink">
<g id="graph0" class="graph" transform="scale(1 1) rotate(0) translate(4 184)">
<title>%3</title>
<polygon fill="white" stroke="none" points="-4,4 -4,-184 1533.63,-184 1533.63,4 -4,4"/>
<!-- [root] meta.count&#45;boundary (count boundary fixup) -->
<g id="node1" class="node"><title>[root] meta.count&#45;boundary (count boundary fixup)</title>
<ellipse fill="none" stroke="black" cx="832.041" cy="-162" rx="247.756" ry="18"/>
<text text-anchor="middle" x="832.041" y="-158.3" font-family="Times,serif" font-size="14.00">[root] meta.count&#45;boundary (count boundary fixup)</text>
</g>
<!-- [root] output.bubba -->
<g id="node2" class="node"><title>[root] output.bubba</title>
<ellipse fill="none" stroke="black" cx="102.041" cy="-90" rx="102.082" ry="18"/>
<text text-anchor="middle" x="102.041" y="-86.3" font-family="Times,serif" font-size="14.00">[root] output.bubba</text>
</g>
<!-- [root] meta.count&#45;boundary (count boundary fixup)&#45;&gt;[root] output.bubba -->
<g id="edge1" class="edge"><title>[root] meta.count&#45;boundary (count boundary fixup)&#45;&gt;[root] output.bubba</title>
<path fill="none" stroke="black" d="M657.629,-149.18C533.438,-140.005 362.713,-125.849 213.041,-108 203.702,-106.886 193.941,-105.589 184.249,-104.216"/>
<polygon fill="black" stroke="black" points="184.592,-100.729 174.194,-102.763 183.59,-107.657 184.592,-100.729"/>
</g>
<!-- [root] output.more -->
<g id="node3" class="node"><title>[root] output.more</title>
<ellipse fill="none" stroke="black" cx="319.041" cy="-90" rx="96.6831" ry="18"/>
<text text-anchor="middle" x="319.041" y="-86.3" font-family="Times,serif" font-size="14.00">[root] output.more</text>
</g>
<!-- [root] meta.count&#45;boundary (count boundary fixup)&#45;&gt;[root] output.more -->
<g id="edge2" class="edge"><title>[root] meta.count&#45;boundary (count boundary fixup)&#45;&gt;[root] output.more</title>
<path fill="none" stroke="black" d="M710.952,-146.28C629.708,-136.155 520.343,-122.047 424.041,-108 415.767,-106.793 407.134,-105.481 398.53,-104.139"/>
<polygon fill="black" stroke="black" points="398.887,-100.653 388.464,-102.555 397.798,-107.567 398.887,-100.653"/>
</g>
<!-- [root] var.location -->
<g id="node4" class="node"><title>[root] var.location</title>
<ellipse fill="none" stroke="black" cx="527.041" cy="-90" rx="93.6835" ry="18"/>
<text text-anchor="middle" x="527.041" y="-86.3" font-family="Times,serif" font-size="14.00">[root] var.location</text>
</g>
<!-- [root] meta.count&#45;boundary (count boundary fixup)&#45;&gt;[root] var.location -->
<g id="edge3" class="edge"><title>[root] meta.count&#45;boundary (count boundary fixup)&#45;&gt;[root] var.location</title>
<path fill="none" stroke="black" d="M760.917,-144.676C710.854,-133.187 644.245,-117.899 594.919,-106.578"/>
<polygon fill="black" stroke="black" points="595.51,-103.123 584.981,-104.298 593.945,-109.946 595.51,-103.123"/>
</g>
<!-- [root] var.password -->
<g id="node5" class="node"><title>[root] var.password</title>
<ellipse fill="none" stroke="black" cx="739.041" cy="-90" rx="100.983" ry="18"/>
<text text-anchor="middle" x="739.041" y="-86.3" font-family="Times,serif" font-size="14.00">[root] var.password</text>
</g>
<!-- [root] meta.count&#45;boundary (count boundary fixup)&#45;&gt;[root] var.password -->
<g id="edge4" class="edge"><title>[root] meta.count&#45;boundary (count boundary fixup)&#45;&gt;[root] var.password</title>
<path fill="none" stroke="black" d="M809.528,-144.055C797.534,-135.027 782.607,-123.792 769.581,-113.987"/>
<polygon fill="black" stroke="black" points="771.441,-111.006 761.346,-107.789 767.231,-116.599 771.441,-111.006"/>
</g>
<!-- [root] var.rg -->
<g id="node6" class="node"><title>[root] var.rg</title>
<ellipse fill="none" stroke="black" cx="925.041" cy="-90" rx="66.8882" ry="18"/>
<text text-anchor="middle" x="925.041" y="-86.3" font-family="Times,serif" font-size="14.00">[root] var.rg</text>
</g>
<!-- [root] meta.count&#45;boundary (count boundary fixup)&#45;&gt;[root] var.rg -->
<g id="edge5" class="edge"><title>[root] meta.count&#45;boundary (count boundary fixup)&#45;&gt;[root] var.rg</title>
<path fill="none" stroke="black" d="M854.554,-144.055C866.813,-134.828 882.135,-123.295 895.36,-113.341"/>
<polygon fill="black" stroke="black" points="897.809,-115.878 903.694,-107.068 893.599,-110.285 897.809,-115.878"/>
</g>
<!-- [root] var.sub_id -->
<g id="node7" class="node"><title>[root] var.sub_id</title>
<ellipse fill="none" stroke="black" cx="1097.04" cy="-90" rx="87.1846" ry="18"/>
<text text-anchor="middle" x="1097.04" y="-86.3" font-family="Times,serif" font-size="14.00">[root] var.sub_id</text>
</g>
<!-- [root] meta.count&#45;boundary (count boundary fixup)&#45;&gt;[root] var.sub_id -->
<g id="edge6" class="edge"><title>[root] meta.count&#45;boundary (count boundary fixup)&#45;&gt;[root] var.sub_id</title>
<path fill="none" stroke="black" d="M894.507,-144.5C937.147,-133.236 993.367,-118.386 1035.75,-107.189"/>
<polygon fill="black" stroke="black" points="1036.89,-110.508 1045.67,-104.57 1035.1,-103.741 1036.89,-110.508"/>
</g>
<!-- [root] var.tenant -->
<g id="node8" class="node"><title>[root] var.tenant</title>
<ellipse fill="none" stroke="black" cx="1289.04" cy="-90" rx="87.1846" ry="18"/>
<text text-anchor="middle" x="1289.04" y="-86.3" font-family="Times,serif" font-size="14.00">[root] var.tenant</text>
</g>
<!-- [root] meta.count&#45;boundary (count boundary fixup)&#45;&gt;[root] var.tenant -->
<g id="edge7" class="edge"><title>[root] meta.count&#45;boundary (count boundary fixup)&#45;&gt;[root] var.tenant</title>
<path fill="none" stroke="black" d="M941.172,-145.832C1012.85,-135.66 1108.62,-121.668 1193.04,-108 1200.42,-106.806 1208.11,-105.517 1215.78,-104.203"/>
<polygon fill="black" stroke="black" points="1216.57,-107.619 1225.83,-102.467 1215.38,-100.721 1216.57,-107.619"/>
</g>
<!-- [root] var.yo -->
<g id="node9" class="node"><title>[root] var.yo</title>
<ellipse fill="none" stroke="black" cx="1462.04" cy="-90" rx="67.6881" ry="18"/>
<text text-anchor="middle" x="1462.04" y="-86.3" font-family="Times,serif" font-size="14.00">[root] var.yo</text>
</g>
<!-- [root] meta.count&#45;boundary (count boundary fixup)&#45;&gt;[root] var.yo -->
<g id="edge8" class="edge"><title>[root] meta.count&#45;boundary (count boundary fixup)&#45;&gt;[root] var.yo</title>
<path fill="none" stroke="black" d="M1010.18,-149.461C1118.9,-141.048 1260.48,-127.645 1385.04,-108 1391.16,-107.034 1397.53,-105.878 1403.86,-104.63"/>
<polygon fill="black" stroke="black" points="1404.65,-108.041 1413.74,-102.605 1403.24,-101.184 1404.65,-108.041"/>
</g>
<!-- [root] var.appid -->
<g id="node10" class="node"><title>[root] var.appid</title>
<ellipse fill="none" stroke="black" cx="319.041" cy="-18" rx="82.5854" ry="18"/>
<text text-anchor="middle" x="319.041" y="-14.3" font-family="Times,serif" font-size="14.00">[root] var.appid</text>
</g>
<!-- [root] output.more&#45;&gt;[root] var.appid -->
<g id="edge9" class="edge"><title>[root] output.more&#45;&gt;[root] var.appid</title>
<path fill="none" stroke="black" d="M319.041,-71.6966C319.041,-63.9827 319.041,-54.7125 319.041,-46.1124"/>
<polygon fill="black" stroke="black" points="322.541,-46.1043 319.041,-36.1043 315.541,-46.1044 322.541,-46.1043"/>
</g>
</g>
</svg>
